<svg width="18" height="18" viewBox="0 0 18 18" fill="none" xmlns="http://www.w3.org/2000/svg">
<path d="M11.4398 8.58248C11.4398 10.1561 10.1563 11.4396 8.58266 11.4396C7.009 11.4396 5.72552 10.1561 5.72552 8.58248C5.72552 7.00882 7.009 5.72534 8.58266 5.72534C10.1563 5.72534 11.4398 7.00882 11.4398 8.58248ZM12.98 8.58248C12.98 6.14945 11.0157 4.18516 8.58266 4.18516C6.14962 4.18516 4.18534 6.14945 4.18534 8.58248C4.18534 11.0155 6.14962 12.9798 8.58266 12.9798C11.0157 12.9798 12.98 11.0155 12.98 8.58248ZM14.1853 4.00659C14.1853 3.43739 13.7277 2.97981 13.1586 2.97981C12.5894 2.97981 12.1318 3.43739 12.1318 4.00659C12.1318 4.57579 12.5894 5.03338 13.1586 5.03338C13.7277 5.03338 14.1853 4.57579 14.1853 4.00659ZM8.58266 1.55123C9.83266 1.55123 12.5112 1.45079 13.6385 1.89722C14.0291 2.05347 14.3193 2.2432 14.6206 2.54454C14.9219 2.84588 15.1117 3.13606 15.2679 3.52668C15.7144 4.65391 15.6139 7.33248 15.6139 8.58248C15.6139 9.83248 15.7144 12.5111 15.2679 13.6383C15.1117 14.0289 14.9219 14.3191 14.6206 14.6204C14.3193 14.9218 14.0291 15.1115 13.6385 15.2678C12.5112 15.7142 9.83266 15.6137 8.58266 15.6137C7.33266 15.6137 4.65409 15.7142 3.52686 15.2678C3.13623 15.1115 2.84605 14.9218 2.54471 14.6204C2.24337 14.3191 2.05364 14.0289 1.89739 13.6383C1.45096 12.5111 1.55141 9.83248 1.55141 8.58248C1.55141 7.33248 1.45096 4.65391 1.89739 3.52668C2.05364 3.13606 2.24337 2.84588 2.54471 2.54454C2.84605 2.2432 3.13623 2.05347 3.52686 1.89722C4.65409 1.45079 7.33266 1.55123 8.58266 1.55123ZM17.1541 8.58248C17.1541 7.39945 17.1652 6.22757 17.0983 5.04454C17.0313 3.67177 16.7188 2.45525 15.7144 1.45079C14.7099 0.446323 13.4934 0.133823 12.1206 0.0668595C10.9376 -0.000105143 9.7657 0.0110552 8.58266 0.0110552C7.39962 0.0110552 6.22775 -0.000105143 5.04471 0.0668595C3.67194 0.133823 2.45543 0.446323 1.45096 1.45079C0.446498 2.45525 0.133998 3.67177 0.067034 5.04454C6.9754e-05 6.22757 0.0112305 7.39945 0.0112305 8.58248C0.0112305 9.76552 6.9754e-05 10.9374 0.067034 12.1204C0.133998 13.4932 0.446498 14.7097 1.45096 15.7142C2.45543 16.7186 3.67194 17.0311 5.04471 17.0981C6.22775 17.1651 7.39962 17.1539 8.58266 17.1539C9.7657 17.1539 10.9376 17.1651 12.1206 17.0981C13.4934 17.0311 14.7099 16.7186 15.7144 15.7142C16.7188 14.7097 17.0313 13.4932 17.0983 12.1204C17.1652 10.9374 17.1541 9.76552 17.1541 8.58248Z" fill="white"/>
</svg>
