<svg width="18" height="17" viewBox="0 0 18 17" fill="none" xmlns="http://www.w3.org/2000/svg">
<path d="M3.89509 5.32356H0.212054V16.3838H3.89509V5.32356ZM4.12946 1.90838C4.1183 0.825788 3.33705 -0.000105143 2.07589 -0.000105143C0.825893 -0.000105143 0 0.825788 0 1.90838C0 2.96864 0.792411 3.81686 2.03125 3.81686H2.05357C3.33705 3.81686 4.14063 2.96864 4.12946 1.90838ZM17.1429 10.0445C17.1429 6.65168 15.3348 5.06686 12.9129 5.06686C10.9263 5.06686 10.0558 6.17177 9.57589 6.9307H9.59821V5.32356H5.92634C5.92634 5.32356 5.97098 6.3615 5.92634 16.3838H9.59821V10.2119C9.59821 9.87713 9.6317 9.55347 9.72098 9.30793C9.98884 8.64945 10.5915 7.96864 11.6071 7.96864C12.9353 7.96864 13.471 8.98427 13.471 10.4686V16.3838H17.1429V10.0445Z" fill="white"/>
</svg>
