<svg width="44" height="38" viewBox="0 0 44 38" fill="none" xmlns="http://www.w3.org/2000/svg">
<path d="M38.135 1H5.84412C3.16906 1 1.00049 3.16857 1.00049 5.84364V31.6764C1.00049 34.3514 3.16906 36.52 5.84412 36.52H38.135C40.8101 36.52 42.9787 34.3514 42.9787 31.6764V5.84364C42.9787 3.16857 40.8101 1 38.135 1Z" stroke="#7B7B7B" stroke-width="2" stroke-linejoin="round"/>
<path d="M30.0621 13.9162C31.8455 13.9162 33.2912 12.4705 33.2912 10.6871C33.2912 8.90372 31.8455 7.45801 30.0621 7.45801C28.2787 7.45801 26.833 8.90372 26.833 10.6871C26.833 12.4705 28.2787 13.9162 30.0621 13.9162Z" stroke="#7B7B7B" stroke-width="2" stroke-miterlimit="10"/>
<path d="M18.76 36.5197L31.2061 24.0735C31.7753 23.5032 32.5372 23.1662 33.3421 23.1289C34.147 23.0916 34.9368 23.3565 35.5563 23.8717L42.9782 30.0615M26.8327 26.8112L17.6843 17.6799C17.1022 17.0979 16.3197 16.7602 15.4969 16.7358C14.6741 16.7114 13.873 17.0022 13.2574 17.5487L1 28.4469L26.8327 26.8112Z" stroke="#7B7B7B" stroke-width="2" stroke-linecap="round" stroke-linejoin="round"/>
</svg>
