<svg width="39" height="39" viewBox="0 0 39 39" fill="none" xmlns="http://www.w3.org/2000/svg">
<path d="M10.2497 24.5607L2.28116 28.1364C0.585316 28.9072 0.585316 30.1695 2.28116 30.9403L16.5417 37.4443C18.1691 38.1852 20.8478 38.1852 22.4752 37.4443L36.7357 30.9403C38.4316 30.1695 38.4316 28.9072 36.7357 28.1364L29.0331 24.4296M36.728 8.09653L22.3364 1.53477C20.7765 0.821744 18.2231 0.821744 16.6631 1.53477L2.28116 8.09653C0.585316 8.86737 0.585316 10.1287 2.28116 10.8995L16.5417 17.4034C18.1691 18.1454 20.8478 18.1454 22.4752 17.4034L36.7357 10.8995C38.4238 10.1287 38.4238 8.86641 36.728 8.09653Z" stroke="#7B7B7B" stroke-width="2" stroke-linecap="round" stroke-linejoin="round"/>
<path d="M10.2501 14.5356L2.27188 18.1162C0.576039 18.887 0.576039 20.1493 2.27188 20.9201L16.5324 27.4231C18.1598 28.165 20.8385 28.165 22.4659 27.4231L36.7264 20.9201C38.4319 20.1493 38.4319 18.887 36.7361 18.1162L28.7502 14.5356" stroke="#7B7B7B" stroke-width="2" stroke-linecap="round" stroke-linejoin="round"/>
</svg>
