<svg width="18" height="18" viewBox="0 0 18 18" fill="none" xmlns="http://www.w3.org/2000/svg">
<path d="M13.0915 10.4353C13.0915 12.701 10.904 13.7501 8.8058 13.7501C6.29464 13.7501 4.19643 12.634 4.19643 11.2612C4.19643 10.6474 4.54241 10.0894 5.32366 10.0894C6.51786 10.0894 6.62946 11.8081 8.6942 11.8081C9.67634 11.8081 10.3125 11.3728 10.3125 10.8036C10.3125 10.0894 9.69866 9.97775 8.70536 9.73221L7.07589 9.33043C5.44643 8.9398 4.19643 8.27016 4.19643 6.39516C4.19643 4.12953 6.43973 3.29248 8.37054 3.29248C10.4799 3.29248 12.6116 4.12953 12.6116 5.41302C12.6116 6.06034 12.1763 6.62953 11.4509 6.62953C10.3683 6.62953 10.3348 5.34605 8.58259 5.34605C7.60045 5.34605 6.97545 5.61391 6.97545 6.20543C6.97545 6.85275 7.61161 6.99784 8.45982 7.19873L9.62054 7.46659C11.2054 7.82373 13.0915 8.49337 13.0915 10.4353ZM17.1429 12.8572C17.1429 11.8751 16.808 10.9711 16.25 10.2456C16.3616 9.70989 16.4286 9.14069 16.4286 8.5715C16.4286 4.22998 12.9129 0.714354 8.57143 0.714354C8.00223 0.714354 7.43304 0.781319 6.89732 0.892926C6.17188 0.334891 5.26786 6.8903e-05 4.28571 6.8903e-05C1.91964 6.8903e-05 0 1.91971 0 4.28578C0 5.26793 0.334821 6.17194 0.892857 6.89739C0.78125 7.4331 0.714286 8.0023 0.714286 8.5715C0.714286 12.913 4.22991 16.4286 8.57143 16.4286C9.14063 16.4286 9.70982 16.3617 10.2455 16.2501C10.971 16.8081 11.875 17.1429 12.8571 17.1429C15.2232 17.1429 17.1429 15.2233 17.1429 12.8572Z" fill="white"/>
</svg>
